<svg width="163" height="34" fill="none" xmlns="http://www.w3.org/2000/svg"><path d="M8.75 14.516v1.226H2.594v-1.226H8.75ZM2.828 9.625V21H1.32V9.625h1.508Zm7.235 0V21h-1.5V9.625h1.5Zm6.648 0V21h-1.484V9.625h1.484Zm3.656 0v1.234h-8.789V9.625h8.79Zm2.164 0h1.461l3.727 9.273 3.718-9.273h1.47L28.28 21h-1.14L22.53 9.625Zm-.476 0h1.289l.21 6.938V21h-1.5V9.625Zm10.03 0h1.29V21h-1.5v-4.438l.21-6.937Zm10.837 10.148V21h-5.688v-1.227h5.688Zm-5.39-10.148V21h-1.509V9.625h1.508Zm15.296 1.008L49.062 21h-1.539L51.86 9.625h.993l-.024 1.008ZM55.984 21l-3.773-10.367-.023-1.008h.992L57.53 21h-1.547Zm-.195-4.21v1.233H49.4V16.79h6.39Zm6.43 3.179c.343 0 .661-.07.953-.211.292-.14.531-.334.719-.578a1.61 1.61 0 0 0 .32-.852h1.375c-.026.5-.195.966-.508 1.399-.307.427-.71.773-1.21 1.039-.5.26-1.05.39-1.65.39-.635 0-1.19-.112-1.663-.336a3.297 3.297 0 0 1-1.172-.922 4.119 4.119 0 0 1-.696-1.343 5.672 5.672 0 0 1-.226-1.617v-.329c0-.567.075-1.104.227-1.609.156-.51.387-.96.695-1.352.312-.39.703-.697 1.172-.921.474-.224 1.028-.336 1.664-.336.661 0 1.24.135 1.734.406.495.265.883.63 1.164 1.094.287.458.443.979.469 1.562H64.21a2.083 2.083 0 0 0-.297-.945 1.852 1.852 0 0 0-.687-.672 1.922 1.922 0 0 0-1.008-.258c-.443 0-.815.089-1.117.266a1.957 1.957 0 0 0-.711.703 3.286 3.286 0 0 0-.375.976c-.073.355-.11.717-.11 1.086v.328c0 .37.037.735.11 1.094.073.36.195.685.367.977.177.291.414.526.71.703.303.172.678.258 1.126.258Zm9.976-.414v-4.352c0-.333-.067-.622-.203-.867a1.329 1.329 0 0 0-.594-.578c-.265-.136-.593-.203-.984-.203a2.31 2.31 0 0 0-.96.187c-.272.125-.485.29-.641.492a1.079 1.079 0 0 0-.227.657H67.14c0-.303.078-.602.234-.899.156-.297.38-.565.672-.805a3.358 3.358 0 0 1 1.062-.578c.417-.146.88-.218 1.391-.218.615 0 1.156.104 1.625.312.474.209.844.524 1.11.945.27.417.406.94.406 1.57v3.938c0 .282.023.581.07.899.052.317.127.59.227.82V21H72.43a2.702 2.702 0 0 1-.172-.664 5.35 5.35 0 0 1-.063-.781Zm.25-3.68.016 1.016H71c-.412 0-.779.034-1.102.101a2.52 2.52 0 0 0-.812.29c-.219.13-.385.294-.5.491-.115.193-.172.42-.172.68 0 .266.06.508.18.727.12.218.3.393.539.523.245.125.544.188.898.188.443 0 .834-.094 1.172-.282.339-.187.607-.416.805-.687.203-.271.312-.534.328-.79l.617.696c-.036.219-.135.461-.297.727a3.5 3.5 0 0 1-1.602 1.367 3.106 3.106 0 0 1-1.234.234c-.573 0-1.075-.112-1.507-.336a2.578 2.578 0 0 1-1-.898 2.378 2.378 0 0 1-.352-1.274c0-.453.088-.851.266-1.195.177-.349.432-.638.765-.867a3.64 3.64 0 0 1 1.203-.531c.47-.12.993-.18 1.57-.18h1.68Zm8.797 3.484V9h1.453v12h-1.328l-.125-1.64Zm-5.687-2.492v-.164c0-.646.078-1.232.234-1.758.162-.53.388-.987.68-1.367.297-.38.648-.672 1.054-.875a3 3 0 0 1 1.375-.312c.532 0 .995.093 1.391.28.401.183.74.451 1.016.806.28.348.502.77.664 1.265.161.495.273 1.055.336 1.68v.719a7.366 7.366 0 0 1-.336 1.672 3.945 3.945 0 0 1-.664 1.265 2.78 2.78 0 0 1-1.016.805c-.401.182-.87.273-1.406.273-.495 0-.948-.107-1.36-.32a3.207 3.207 0 0 1-1.054-.898 4.376 4.376 0 0 1-.68-1.36 5.983 5.983 0 0 1-.234-1.71Zm1.453-.164v.164c0 .422.041.818.125 1.188.088.37.224.695.406.976.182.282.414.503.695.664.282.157.618.235 1.008.235.48 0 .873-.102 1.18-.305.312-.203.562-.471.75-.805.187-.333.333-.695.437-1.086v-1.882a4.173 4.173 0 0 0-.273-.829 2.548 2.548 0 0 0-.453-.718 1.958 1.958 0 0 0-.68-.508 2.202 2.202 0 0 0-.945-.188c-.396 0-.737.084-1.024.25a1.993 1.993 0 0 0-.695.672c-.182.281-.318.61-.406.985-.084.37-.125.765-.125 1.187Zm11.445 4.453a4.158 4.158 0 0 1-1.601-.297 3.632 3.632 0 0 1-1.227-.851 3.787 3.787 0 0 1-.781-1.297 4.756 4.756 0 0 1-.274-1.64v-.329c0-.687.102-1.3.305-1.836.203-.541.48-1 .828-1.375a3.548 3.548 0 0 1 1.188-.851c.442-.193.9-.29 1.375-.29.604 0 1.125.105 1.562.313.443.209.805.5 1.086.875.281.37.49.807.625 1.313.135.5.203 1.046.203 1.64v.649H85.43V16h4.867v-.11a3.607 3.607 0 0 0-.234-1.093 1.965 1.965 0 0 0-.626-.875c-.286-.23-.677-.344-1.171-.344a1.966 1.966 0 0 0-1.618.82 3.07 3.07 0 0 0-.46.993c-.11.39-.165.84-.165 1.351v.328c0 .401.055.779.165 1.133.114.35.278.656.492.922.218.266.481.474.789.625.312.151.666.227 1.062.227.51 0 .943-.105 1.297-.313.354-.208.664-.487.93-.836l.875.695c-.182.276-.414.54-.695.79a3.32 3.32 0 0 1-1.04.609c-.406.156-.888.234-1.445.234Zm6.414-6.93V21h-1.453v-8.453h1.375l.078 1.68Zm-.297 2.227-.672-.023c.006-.578.081-1.112.227-1.602a3.8 3.8 0 0 1 .648-1.289 2.882 2.882 0 0 1 1.07-.844c.428-.203.923-.304 1.485-.304.396 0 .76.057 1.094.171.333.11.622.284.867.524.245.24.435.547.57.922.136.375.203.828.203 1.36V21h-1.445v-5.563c0-.442-.075-.796-.226-1.062a1.294 1.294 0 0 0-.625-.578 2.255 2.255 0 0 0-.954-.188c-.427 0-.783.076-1.07.227-.286.151-.515.36-.687.625-.172.266-.297.57-.375.914-.073.338-.11.698-.11 1.078Zm5.477-.797-.969.297c.005-.463.08-.909.227-1.336.15-.427.367-.807.648-1.14a3.07 3.07 0 0 1 1.055-.79c.416-.197.893-.296 1.43-.296a3.7 3.7 0 0 1 1.203.18c.354.12.651.304.89.554.245.245.43.56.555.945.125.386.187.844.187 1.375V21h-1.453v-5.57c0-.474-.075-.841-.226-1.102a1.18 1.18 0 0 0-.625-.555 2.503 2.503 0 0 0-.953-.164c-.318 0-.599.055-.844.164-.245.11-.451.26-.617.454a1.964 1.964 0 0 0-.383.648 2.417 2.417 0 0 0-.125.781Zm9.789 4.469 2.352-7.578h1.546l-3.39 9.758a5.392 5.392 0 0 1-.313.672 3.213 3.213 0 0 1-.484.695 2.311 2.311 0 0 1-.719.531c-.276.14-.607.211-.992.211-.115 0-.26-.016-.438-.047a4.293 4.293 0 0 1-.375-.078l-.007-1.172c.041.005.106.01.195.016a2.325 2.325 0 0 0 1.031-.117c.229-.084.422-.227.578-.43.162-.198.3-.471.414-.82l.602-1.641Zm-1.727-7.578 2.196 6.562.375 1.524-1.039.531-3.11-8.617h1.578Z" fill="#444"/><path d="M149.643.016 149.5 0 136 1.407v24.606L149.5 34l13.5-7.987V1.407L149.643.016Zm11.591 25L149.5 31.956l-11.734-6.942V14.93l11.685 6.916.019 1.253-8.016-4.743-.011 1.225 8.046 4.809.02 1.286-8.045-4.758-.01 1.226 8.046 4.808 8.124-4.833V16.91l3.619-2.15-.009 10.256Zm0-11.564-3.219 1.88-1.482.875-7.066-4.187-.011 1.225 6.04 3.573-.053.031-.13.076-.859.492-4.987-2.948-.011 1.225 3.936 2.328-.933.61-.021.012-2.971-1.742-.011 1.225 1.947 1.135-1.987 1.186-11.619-6.872 11.638-6.958 11.799 6.834Zm0-1.225L149.44 5.31l-11.674 6.909V2.99L149.5 1.764l11.734 1.226v9.237Z" fill="#666"/></svg>